<?xml version="1.0" standalone="no"?>
<!DOCTYPE svg PUBLIC "-//W3C//DTD SVG 20010904//EN"
 "http://www.w3.org/TR/2001/REC-SVG-20010904/DTD/svg10.dtd">
<svg version="1.0" xmlns="http://www.w3.org/2000/svg"
 width="512.000000pt" height="512.000000pt" viewBox="0 0 512.000000 512.000000"
 preserveAspectRatio="xMidYMid meet">
<metadata>
Created by potrace 1.14, written by Peter Selinger 2001-2017
</metadata>
<g transform="translate(0.000000,512.000000) scale(0.100000,-0.100000)"
fill="#000000" stroke="none">
<path d="M656 5109 c-326 -54 -599 -332 -646 -656 -12 -85 -12 -3690 0 -3783
37 -282 259 -543 537 -630 37 -12 93 -25 123 -28 30 -4 894 -7 1920 -7 2084 0
1907 -6 2069 71 217 102 366 277 433 511 l23 78 0 1895 0 1895 -23 79 c-80
275 -293 491 -552 558 -19 5 -44 12 -55 16 -29 10 -3770 11 -3829 1z m3749
-73 c353 -35 629 -337 634 -694 3 -276 0 -3569 -3 -3617 -22 -287 -237 -542
-521 -621 -62 -17 -156 -24 -310 -23 -49 0 -96 0 -102 0 -7 0 -65 0 -128 1
-63 0 -125 0 -137 -1 -13 0 -63 0 -113 0 -49 1 -96 1 -102 1 -7 -1 -65 -1
-128 0 -63 0 -125 0 -137 -1 -13 0 -63 0 -113 0 -49 1 -96 1 -102 1 -7 -1 -65
-1 -128 0 -63 0 -125 0 -137 -1 -13 0 -63 0 -113 0 -49 1 -96 1 -102 1 -7 -1
-65 -1 -128 0 -63 0 -125 0 -137 -1 -13 0 -63 0 -113 0 -49 1 -96 1 -102 1 -7
-1 -65 -1 -128 0 -63 0 -125 0 -137 -1 -13 0 -63 0 -113 0 -49 1 -96 1 -102 1
-7 -1 -65 -1 -128 0 -63 0 -125 0 -137 -1 -13 0 -63 0 -113 0 -49 1 -96 1
-102 1 -7 -1 -65 -1 -128 0 -63 0 -125 0 -137 -1 -209 -2 -262 1 -349 23 -265
68 -471 293 -519 566 -9 47 -12 566 -11 1900 0 1009 2 1842 4 1850 2 8 7 33
11 55 31 163 147 339 286 435 105 72 157 93 289 119 76 14 252 16 1879 15 988
-1 1823 -5 1857 -8z"/>
<path d="M2776 4318 c-21 -19 -44 -89 -136 -408 -61 -212 -127 -437 -145 -500
-19 -63 -59 -200 -89 -305 -30 -104 -66 -228 -80 -275 -14 -47 -32 -110 -40
-140 -8 -30 -58 -201 -111 -380 -53 -179 -97 -334 -100 -345 -2 -11 -12 -49
-23 -85 -18 -60 -132 -448 -218 -748 -20 -68 -33 -133 -30 -145 12 -49 29 -57
266 -126 293 -85 295 -85 334 61 8 29 42 145 75 258 116 399 150 516 176 605
14 50 41 142 60 205 19 63 41 140 49 170 18 65 32 114 79 275 20 66 60 206 91
310 30 105 101 348 157 540 56 193 105 364 109 380 5 17 36 125 70 240 34 116
62 220 62 231 1 30 -32 72 -62 79 -14 3 -56 15 -95 26 -38 11 -99 29 -135 40
-36 10 -96 28 -134 39 -86 25 -99 25 -130 -2z"/>
<path d="M1405 3579 c-11 -4 -41 -27 -66 -51 -26 -23 -104 -97 -173 -162 -70
-66 -135 -127 -145 -135 -10 -9 -78 -73 -152 -142 -74 -70 -152 -143 -174
-164 -22 -20 -100 -94 -174 -163 -73 -70 -137 -129 -141 -132 -13 -9 -30 -48
-30 -70 0 -23 42 -67 235 -247 131 -122 136 -126 345 -323 79 -74 156 -146
171 -160 15 -14 82 -77 149 -140 133 -125 152 -139 189 -140 25 0 70 42 251
236 127 136 123 131 122 171 -1 43 14 27 -242 251 -85 75 -157 139 -160 142
-3 3 -39 34 -80 70 -41 36 -90 79 -108 95 -19 17 -41 34 -49 39 -13 7 -10 14
18 38 19 16 52 46 74 66 22 21 74 66 115 102 119 103 131 114 154 135 72 64
167 147 208 181 63 52 83 93 66 133 -7 16 -67 87 -133 156 -66 70 -136 145
-156 166 -38 42 -82 61 -114 48z"/>
<path d="M3663 3577 c-10 -5 -27 -20 -38 -32 -21 -23 -250 -267 -273 -291 -24
-25 -39 -64 -34 -90 2 -14 28 -45 59 -72 31 -26 69 -60 87 -77 17 -16 65 -59
106 -95 74 -65 133 -116 154 -135 6 -6 64 -57 129 -114 111 -98 117 -105 100
-120 -10 -9 -52 -45 -93 -81 -41 -36 -91 -79 -110 -96 -19 -17 -62 -55 -95
-84 -33 -29 -78 -69 -101 -89 -53 -47 -171 -150 -200 -176 -33 -29 -44 -65
-30 -97 10 -25 122 -150 282 -315 77 -80 102 -83 171 -20 77 69 164 151 369
343 76 72 155 146 174 164 145 134 298 279 374 352 87 85 89 87 83 125 -5 28
-18 48 -49 77 -24 21 -99 91 -167 155 -68 64 -140 131 -160 149 -20 19 -94 89
-166 157 -71 67 -148 139 -170 160 -22 20 -92 86 -155 145 -121 114 -172 159
-180 161 -31 5 -52 4 -67 -4z"/>
</g>
</svg>
